<svg xmlns="http://www.w3.org/2000/svg" width="177" height="54" viewBox="0 0 177 54" fill="none">
<path d="M158.892 20.1833C148.894 20.1833 140.783 27.5682 140.783 36.6695C140.783 45.7709 148.894 53.1557 158.892 53.1557C168.889 53.1557 177 45.7709 177 36.6695C177 27.5682 168.889 20.1833 158.892 20.1833ZM158.901 48.5531C151.158 48.5531 145.829 43.7808 145.829 36.7355C145.829 29.6902 151.158 24.9179 158.901 24.9179C166.644 24.9179 171.973 29.6902 171.973 36.7355C171.973 43.7808 166.644 48.5531 158.901 48.5531Z" fill="#FBF6EF"/>
<path d="M34.4059 20.1834C34.3965 20.4003 34.3682 20.6172 34.3682 20.8342C34.3682 31.3785 34.3682 41.9323 34.3682 52.4767C34.3682 53.1463 34.3682 53.1463 33.6986 53.1463C32.2838 53.1463 30.8691 53.1274 29.4544 53.1557C28.9923 53.1652 28.8791 53.0143 28.8791 52.5615C28.8885 45.205 28.8885 37.8485 28.8885 30.492C28.8885 30.2939 28.8885 30.0958 28.8885 29.8978C28.8508 29.8883 28.8131 29.8695 28.7753 29.86C28.6716 30.0204 28.549 30.1713 28.4547 30.3316C25.3046 35.5661 22.1545 40.8005 19.0138 46.0444C18.7969 46.4122 18.5517 46.5726 18.1178 46.5537C17.3633 46.516 16.6088 46.5254 15.8543 46.5537C15.5242 46.5631 15.345 46.4405 15.1846 46.1576C12.1005 40.8288 9.00703 35.5001 5.91352 30.1807C5.79091 29.9638 5.64001 29.7657 5.49853 29.5488C5.45138 29.5677 5.40422 29.5771 5.35706 29.596C5.34763 29.7846 5.32877 29.9827 5.32877 30.1713C5.32877 37.6221 5.32877 45.073 5.32877 52.5238C5.32877 53.1369 5.32877 53.1463 4.70629 53.1463C3.31044 53.1463 1.90515 53.1463 0.509298 53.1463C0.339532 53.1463 0.169766 53.1746 0 53.184C0 42.1775 0 31.1805 0 20.174C1.54676 20.174 3.08408 20.174 4.62141 20.174C4.71572 20.3531 4.80061 20.5418 4.90435 20.7115C8.82784 26.9174 12.7513 33.1328 16.6748 39.3387C16.7785 39.499 16.8823 39.6405 17.0521 39.8762C17.2407 39.6499 17.4199 39.4801 17.5425 39.2821C20.5228 34.6135 23.5126 29.9449 26.4835 25.2764C27.5587 23.5787 28.6244 21.881 29.6996 20.1834C31.2653 20.1834 32.8309 20.1834 34.4059 20.1834Z" fill="#FBF6EF"/>
<path d="M93.7297 20.1833C93.8145 20.2399 93.8994 20.3343 93.9937 20.3343C95.6254 20.3437 97.2193 20.5795 98.7189 21.2397C102.718 22.9939 105.161 26.012 105.859 30.3316C106.868 36.6224 102.539 42.5076 96.295 43.6016C95.2859 43.7808 94.239 43.7997 93.2015 43.8091C90.5324 43.8374 87.8539 43.8186 85.1848 43.8186C84.9961 43.8186 84.8075 43.8186 84.534 43.8186C84.534 44.0261 84.534 44.2052 84.534 44.3844C84.534 47.1196 84.5246 49.8547 84.5434 52.5898C84.5434 53.0519 84.402 53.1746 83.9587 53.1651C82.5251 53.1368 81.101 53.1557 79.6674 53.1557C79.0543 53.1557 79.0543 53.1557 79.0543 52.5238C79.0543 41.9606 79.0543 31.4068 79.0543 20.8436C79.0543 20.6266 79.026 20.4097 79.0166 20.1928C83.921 20.1834 88.8253 20.1833 93.7297 20.1833ZM84.3737 38.7727C84.5529 38.7822 84.6943 38.801 84.8264 38.801C88.0991 38.801 91.3624 38.801 94.6351 38.801C94.7954 38.801 94.9463 38.801 95.1067 38.7822C98.983 38.2068 101.539 34.5474 100.737 30.7183C100.002 27.2286 96.9081 25.3612 94.2295 25.4084C91.136 25.4555 88.0331 25.4178 84.9396 25.4178C84.7604 25.4178 84.5717 25.4178 84.3737 25.4178C84.3737 29.8977 84.3737 34.3117 84.3737 38.7727Z" fill="#FBF6EF"/>
<path d="M59.5874 20.1833C59.7006 20.4852 59.7949 20.8058 59.9364 21.0982C63.4449 28.832 66.9628 36.5658 70.4713 44.2996C71.7257 47.0535 72.98 49.817 74.225 52.5804C74.291 52.7313 74.357 52.8916 74.4419 53.1085C67.1137 53.1085 59.842 53.1085 52.4949 53.1085C52.7024 52.703 52.9005 52.3257 53.0891 51.9579C53.6267 50.9299 54.1549 49.8924 54.7208 48.8738C54.7962 48.7323 55.0509 48.6286 55.2301 48.6286C58.4179 48.6192 61.6151 48.6192 64.803 48.6192C65.3972 48.6192 65.9913 48.6192 66.7081 48.6192C63.4071 41.1589 60.1438 33.7929 56.8334 26.3044C56.6919 26.5496 56.5976 26.6722 56.541 26.8231C52.9476 35.1039 49.3731 43.3941 45.7703 51.6655C45.0064 53.4292 45.4308 53.1274 43.5445 53.1463C42.2712 53.1557 40.998 53.1463 39.7248 53.1463C39.5739 53.1463 39.423 53.1463 39.1777 53.1463C39.5361 52.354 39.8474 51.6372 40.168 50.9299C44.6668 40.8854 49.1656 30.8409 53.655 20.7964C53.7399 20.5983 53.7776 20.3908 53.8436 20.1833C55.7488 20.1833 57.6728 20.1833 59.5874 20.1833Z" fill="#FBF6EF"/>
<path d="M140.227 20.1833C139.057 21.9753 137.888 23.7579 136.718 25.5404C134.294 29.2092 131.87 32.8875 129.437 36.5469C129.211 36.8864 129.211 37.1222 129.456 37.4523C133.106 42.4887 136.737 47.544 140.378 52.5898C140.472 52.7313 140.566 52.8727 140.708 53.0897C140.5 53.118 140.368 53.1463 140.246 53.1463C138.567 53.1463 136.879 53.1651 135.2 53.1368C134.983 53.1368 134.681 52.9765 134.549 52.7973C131.474 48.5814 128.409 44.3656 125.382 40.1214C124.985 39.5744 124.608 39.3481 123.929 39.3669C122.203 39.4141 120.468 39.3858 118.742 39.3858C118.553 39.3858 118.374 39.3858 118.119 39.3858C118.119 39.631 118.119 39.8385 118.119 40.0365C118.119 44.2147 118.11 48.4022 118.129 52.5804C118.129 53.0237 118.016 53.1746 117.553 53.1651C116.139 53.1368 114.724 53.1368 113.309 53.1651C112.847 53.1746 112.725 53.0331 112.725 52.5804C112.734 41.9983 112.734 31.4256 112.734 20.8436C112.734 20.6266 112.706 20.4097 112.696 20.1928C114.517 20.1928 116.346 20.1928 118.167 20.1928C118.148 20.3154 118.129 20.438 118.129 20.5606C118.129 25.0877 118.129 29.6148 118.129 34.1419C118.129 34.2739 118.157 34.406 118.167 34.5663C118.402 34.5663 118.591 34.5663 118.77 34.5663C120.722 34.5663 122.665 34.5474 124.618 34.5757C125.051 34.5852 125.297 34.4248 125.523 34.0759C128.466 29.5771 131.418 25.0877 134.37 20.5983C134.455 20.4663 134.511 20.3248 134.577 20.1833C136.454 20.1833 138.34 20.1833 140.227 20.1833Z" fill="#FBF6EF"/>
<path d="M10.5636 12.723C9.894 13.0437 9.24323 13.27 8.61132 13.4115C7.97942 13.553 7.29092 13.619 6.55527 13.619C4.53694 13.619 2.95246 13.0343 1.80182 11.8553C0.660613 10.6858 0.0947266 9.07305 0.0947266 7.017C0.0947266 4.94208 0.726634 3.25385 1.99045 1.95231C3.25426 0.65077 4.9142 0 6.95139 0C7.62102 0 8.23407 0.0565887 8.79052 0.169766C9.34698 0.282943 9.91286 0.462141 10.4882 0.707359L9.75253 2.53706C9.29039 2.339 8.84711 2.19753 8.40383 2.11264C7.96999 2.02776 7.48898 1.9806 6.97968 1.9806C5.65928 1.9806 4.57466 2.42388 3.72583 3.30101C2.877 4.17813 2.44316 5.37593 2.44316 6.88496C2.44316 8.36569 2.82985 9.53519 3.61266 10.3935C4.39547 11.2517 5.45179 11.6761 6.78162 11.6761C7.2249 11.6761 7.68704 11.6195 8.17748 11.4969C8.66791 11.3838 9.16778 11.1951 9.68651 10.931L10.5636 12.723Z" fill="white"/>
<path d="M24.6925 2.11261H20.9011V13.402H18.6658V2.11261H14.8838V0.226318H24.6925V2.11261Z" fill="white"/>
<path d="M31.303 0.22635L34.255 6.31907C34.3399 6.48883 34.4154 6.64917 34.472 6.80007C34.5285 6.95097 34.5851 7.12074 34.6229 7.29994H34.6417C34.6889 7.13017 34.736 6.97927 34.7832 6.81893C34.8304 6.66803 34.8869 6.49826 34.953 6.31907L37.2165 0.216919H39.5838L35.7452 9.68609C35.1605 11.1385 34.5568 12.1571 33.9249 12.7513C33.293 13.3361 32.5196 13.6379 31.5859 13.6379C31.1992 13.6379 30.8503 13.6001 30.5485 13.5341C30.2467 13.4681 29.9354 13.3549 29.6242 13.1852L30.1241 11.4026C30.3504 11.5064 30.5673 11.5818 30.7748 11.629C30.9823 11.6761 31.2087 11.695 31.4633 11.695C31.9066 11.695 32.2839 11.5252 32.614 11.1857C32.9346 10.8462 33.2647 10.2803 33.576 9.4786L28.7471 0.22635H31.303Z" fill="white"/>
<path d="M43.3379 16.175V11.4499H44.498C45.0356 10.4218 45.4222 9.25234 45.6675 7.94137C45.9127 6.63039 46.0447 5.16852 46.0447 3.54631V0.22644H54.4387V11.4499H56.2684V16.175H54.2218V13.4116H45.3657V16.175H43.3379ZM46.7898 11.4499H52.2223V2.14102H48.1196V3.7538C48.1196 5.39487 48.0159 6.84732 47.799 8.12056C47.5915 9.39381 47.2519 10.5067 46.7898 11.4499Z" fill="white"/>
<path d="M61.9844 13.4115V0.226318H64.1913V8.35623C64.1913 8.77121 64.1913 9.09188 64.1819 9.3371C64.1725 9.58231 64.1536 9.87469 64.1253 10.2331H64.163C64.2479 10.0727 64.3328 9.93128 64.4083 9.80867C64.4837 9.68606 64.6063 9.50686 64.7667 9.28051L71.0291 0.226318H73.2455V13.4115H71.0386V5.27214C71.0386 4.86659 71.0386 4.54592 71.048 4.3007C71.0574 4.05549 71.0763 3.75368 71.1046 3.39529H71.0669C70.982 3.55562 70.8971 3.69709 70.8216 3.8197C70.7462 3.94231 70.6236 4.12151 70.4727 4.34786L64.2102 13.4021H61.9844V13.4115Z" fill="white"/>
<path d="M88.288 13.4115H86.0339V8.23365H84.7041C84.2891 8.23365 83.9307 8.37512 83.61 8.6675C83.2894 8.95987 83.0159 9.37486 82.7895 9.90302L81.2805 13.4115H78.668L80.5448 9.44088C80.7618 8.97873 81.0258 8.59205 81.3371 8.27138C81.6389 7.95071 81.9784 7.73378 82.3274 7.61117V7.57345C81.3842 7.36596 80.658 6.9604 80.1487 6.34736C79.6394 5.73432 79.3942 4.9798 79.3942 4.06495C79.3942 2.89545 79.7997 1.96174 80.6203 1.26381C81.4408 0.565882 82.5915 0.216919 84.0911 0.216919H88.288V13.4115ZM86.0339 6.46054V2.04662H84.3268C83.5157 2.04662 82.8838 2.23525 82.4405 2.60308C81.9973 2.9709 81.7709 3.50849 81.7709 4.19699C81.7709 4.92321 81.9973 5.47967 82.45 5.86636C82.9027 6.26248 83.544 6.45111 84.3646 6.45111H86.0339V6.46054Z" fill="white"/>
<path d="M113.508 13.4116H110.603L106.114 7.58297C106.038 7.48866 105.972 7.39434 105.916 7.30003C105.859 7.20571 105.802 7.10197 105.765 6.98879H105.718V13.4116H103.482V0.22644H105.718V6.37574H105.765C105.802 6.30029 105.85 6.21541 105.916 6.1211C105.972 6.02678 106.048 5.9136 106.123 5.791L110.424 0.22644H113.084L107.972 6.48892L113.508 13.4116Z" fill="white"/>
<path d="M119.695 0.22635L122.647 6.31907C122.732 6.48883 122.807 6.64917 122.864 6.80007C122.92 6.95097 122.977 7.12074 123.014 7.29994H123.033C123.08 7.13017 123.128 6.97927 123.175 6.81893C123.222 6.66803 123.279 6.49826 123.345 6.31907L125.608 0.216919H127.975L124.137 9.68609C123.552 11.1385 122.948 12.1571 122.317 12.7513C121.685 13.3361 120.911 13.6379 119.978 13.6379C119.591 13.6379 119.242 13.6001 118.94 13.5341C118.638 13.4681 118.327 13.3549 118.016 13.1852L118.516 11.4026C118.742 11.5064 118.959 11.5818 119.166 11.629C119.374 11.6761 119.6 11.695 119.855 11.695C120.298 11.695 120.675 11.5252 121.006 11.1857C121.326 10.8462 121.656 10.2803 121.968 9.4786L117.139 0.216919H119.695V0.22635Z" fill="white"/>
<path d="M143.029 13.4115H140.35L137.681 8.72409C137.634 8.64863 137.587 8.54489 137.539 8.41285C137.492 8.28081 137.445 8.1299 137.398 7.95071H137.36C137.323 8.04502 137.285 8.14877 137.228 8.28081C137.181 8.41285 137.115 8.56375 137.04 8.74295L134.333 13.4021H131.626L135.946 6.79064L131.984 0.216919H134.729L137.021 4.51766C137.096 4.66856 137.181 4.8289 137.247 5.00809C137.323 5.17786 137.389 5.35706 137.455 5.53626H137.492C137.558 5.36649 137.634 5.19672 137.709 5.01753C137.785 4.84776 137.87 4.66856 137.954 4.47993L140.416 0.216919H142.934L138.888 6.75291L143.029 13.4115Z" fill="white"/>
<path d="M158.92 13.4115H156.675V7.70546H150.516V13.4021H148.281V0.226318H150.516V5.76258H156.675V0.226318H158.92V13.4115Z" fill="white"/>
<path d="M165.645 13.4115V0.226318H167.851V8.35623C167.851 8.77121 167.851 9.09188 167.842 9.3371C167.833 9.58231 167.814 9.87469 167.785 10.2331H167.823C167.908 10.0727 167.993 9.93128 168.068 9.80867C168.144 9.68606 168.266 9.50686 168.427 9.28051L174.689 0.226318H176.906V13.4115H174.699V5.27214C174.699 4.86659 174.699 4.54592 174.708 4.3007C174.718 4.05549 174.736 3.75368 174.765 3.39529H174.727C174.642 3.55562 174.557 3.69709 174.482 3.8197C174.406 3.94231 174.284 4.12151 174.133 4.34786L167.87 13.4021H165.645V13.4115Z" fill="white"/>
</svg>