<svg xmlns="http://www.w3.org/2000/svg" width="87" height="20" viewBox="0 0 87 20" fill="none">
<path d="M9.44071 1.71045C9.58526 1.26556 10.2147 1.26556 10.3592 1.71045L11.9057 6.46993C11.9703 6.66889 12.1557 6.8036 12.3649 6.8036H17.3693C17.8371 6.8036 18.0316 7.40221 17.6532 7.67717L13.6045 10.6187C13.4353 10.7416 13.3645 10.9596 13.4291 11.1586L14.9756 15.918C15.1201 16.3629 14.6109 16.7329 14.2325 16.4579L10.1838 13.5164C10.0146 13.3935 9.78538 13.3935 9.61613 13.5164L5.56748 16.4579C5.18903 16.7329 4.67982 16.3629 4.82438 15.918L6.37083 11.1586C6.43547 10.9596 6.36465 10.7416 6.1954 10.6187L2.14675 7.67717C1.7683 7.40221 1.9628 6.8036 2.43059 6.8036H7.435C7.6442 6.8036 7.82961 6.66889 7.89426 6.46993L9.44071 1.71045Z" fill="#C1AE05"/>
<path d="M26.342 1.71045C26.4865 1.26556 27.1159 1.26556 27.2605 1.71045L28.8069 6.46993C28.8716 6.66889 29.057 6.8036 29.2662 6.8036H34.2706C34.7384 6.8036 34.9329 7.40221 34.5544 7.67717L30.5058 10.6187C30.3365 10.7416 30.2657 10.9596 30.3304 11.1586L31.8768 15.918C32.0214 16.3629 31.5122 16.7329 31.1337 16.4579L27.085 13.5164C26.9158 13.3935 26.6866 13.3935 26.5174 13.5164L22.4687 16.4579C22.0903 16.7329 21.5811 16.3629 21.7256 15.918L23.2721 11.1586C23.3367 10.9596 23.2659 10.7416 23.0966 10.6187L19.048 7.67717C18.6695 7.40221 18.864 6.8036 19.3318 6.8036H24.3362C24.5454 6.8036 24.7309 6.66889 24.7955 6.46993L26.342 1.71045Z" fill="#C1AE05"/>
<path d="M43.2434 1.71045C43.388 1.26556 44.0174 1.26556 44.162 1.71045L45.7084 6.46993C45.7731 6.66889 45.9585 6.8036 46.1677 6.8036H51.1721C51.6399 6.8036 51.8344 7.40221 51.4559 7.67717L47.4073 10.6187C47.238 10.7416 47.1672 10.9596 47.2318 11.1586L48.7783 15.918C48.9228 16.3629 48.4136 16.7329 48.0352 16.4579L43.9865 13.5164C43.8173 13.3935 43.5881 13.3935 43.4189 13.5164L39.3702 16.4579C38.9918 16.7329 38.4826 16.3629 38.6271 15.918L40.1736 11.1586C40.2382 10.9596 40.1674 10.7416 39.9981 10.6187L35.9495 7.67717C35.571 7.40221 35.7655 6.8036 36.2333 6.8036H41.2377C41.4469 6.8036 41.6323 6.66889 41.697 6.46993L43.2434 1.71045Z" fill="#C1AE05"/>
<path d="M60.1446 1.71045C60.2891 1.26556 60.9185 1.26556 61.0631 1.71045L62.6095 6.46993C62.6742 6.66889 62.8596 6.8036 63.0688 6.8036H68.0732C68.541 6.8036 68.7355 7.40221 68.357 7.67717L64.3084 10.6187C64.1391 10.7416 64.0683 10.9596 64.133 11.1586L65.6794 15.918C65.824 16.3629 65.3148 16.7329 64.9363 16.4579L60.8877 13.5164C60.7184 13.3935 60.4892 13.3935 60.32 13.5164L56.2713 16.4579C55.8929 16.7329 55.3837 16.3629 55.5282 15.918L57.0747 11.1586C57.1393 10.9596 57.0685 10.7416 56.8993 10.6187L52.8506 7.67717C52.4722 7.40221 52.6667 6.8036 53.1344 6.8036H58.1389C58.3481 6.8036 58.5335 6.66889 58.5981 6.46993L60.1446 1.71045Z" fill="#C1AE05"/>
<path d="M77.0462 1.71045C77.1907 1.26556 77.8201 1.26556 77.9647 1.71045L79.5111 6.46993C79.5758 6.66889 79.7612 6.8036 79.9704 6.8036H84.9748C85.4426 6.8036 85.6371 7.40221 85.2586 7.67717L81.21 10.6187C81.0407 10.7416 80.9699 10.9596 81.0346 11.1586L82.581 15.918C82.7256 16.3629 82.2164 16.7329 81.8379 16.4579L77.7893 13.5164C77.62 13.3935 77.3908 13.3935 77.2216 13.5164L73.1729 16.4579C72.7945 16.7329 72.2853 16.3629 72.4298 15.918L73.9763 11.1586C74.0409 10.9596 73.9701 10.7416 73.8009 10.6187L69.7522 7.67717C69.3738 7.40221 69.5683 6.8036 70.0361 6.8036H75.0405C75.2497 6.8036 75.4351 6.66889 75.4997 6.46993L77.0462 1.71045Z" fill="#C1AE05"/>
</svg>