<svg xmlns="http://www.w3.org/2000/svg" width="36" height="36" viewBox="0 0 36 36" fill="none">
<g clip-path="url(#clip0_1_248)">
<path d="M18 36C27.9411 36 36 27.9411 36 18C36 8.05887 27.9411 0 18 0C8.05887 0 0 8.05887 0 18C0 27.9411 8.05887 36 18 36Z" fill="#FBF6EF"/>
<path fill-rule="evenodd" clip-rule="evenodd" d="M8.14853 17.8101C13.3959 15.5238 16.895 14.0166 18.6457 13.2885C23.6445 11.2093 24.6832 10.8481 25.3602 10.8362C25.5091 10.8336 25.842 10.8705 26.0577 11.0455C26.3776 11.3051 26.3794 11.8686 26.3439 12.2415C26.073 15.0878 24.9009 21.9948 24.3046 25.1826C24.0522 26.5315 23.5554 26.9838 23.0745 27.028C22.0292 27.1242 21.2354 26.3372 20.223 25.6736C18.6388 24.6351 17.7438 23.9886 16.206 22.9753C14.4288 21.8042 15.5809 21.1605 16.5937 20.1086C16.8588 19.8333 21.4643 15.6442 21.5535 15.2641C21.5646 15.2166 21.575 15.0394 21.4697 14.9459C21.3645 14.8524 21.2091 14.8843 21.0971 14.9097C20.9382 14.9458 18.4073 16.6186 13.5046 19.9281C12.7862 20.4214 12.1355 20.6617 11.5526 20.6491C10.9098 20.6353 9.67361 20.2858 8.75455 19.987C7.6273 19.6206 6.73138 19.4268 6.80943 18.8046C6.85007 18.4803 7.29641 18.1489 8.14853 17.8101Z" fill="#002B45"/>
</g>
<defs>
<clipPath id="clip0_1_248">
<rect width="36" height="36" fill="white"/>
</clipPath>
</defs>
</svg>