<svg xmlns="http://www.w3.org/2000/svg" width="70" height="61" viewBox="0 0 70 61" fill="none">
<g clip-path="url(#clip0_1_276)">
<path d="M68.4508 60.9933H6.90214C6.4728 60.9933 6.12436 60.6449 6.12436 60.2156C6.12436 59.7862 6.4728 59.4378 6.90214 59.4378H67.673V8.5431H12.2532C11.8239 8.5431 11.4755 8.19466 11.4755 7.76533C11.4755 7.33599 11.8239 6.98755 12.2532 6.98755H68.4508C68.8801 6.98755 69.2286 7.33599 69.2286 7.76533V60.2156C69.2286 60.6449 68.8801 60.9933 68.4508 60.9933Z" fill="#002B45"/>
<path d="M12.2533 55.6422C11.8239 55.6422 11.4755 55.2938 11.4755 54.8645V5.80223C11.4755 3.28067 9.4237 1.22734 6.90059 1.22734C4.37748 1.22734 2.32725 3.28067 2.32725 5.80223V54.8645C2.32725 55.2938 1.97881 55.6422 1.54948 55.6422C1.12014 55.6422 0.771698 55.2938 0.771698 54.8645V5.80223C0.771698 2.42201 3.52192 -0.328217 6.90214 -0.328217C10.2824 -0.328217 13.0326 2.42201 13.0326 5.80223V54.8645C13.031 55.2938 12.6826 55.6422 12.2533 55.6422Z" fill="#002B45"/>
<path d="M6.90214 60.9933C3.52192 60.9933 0.771698 58.2431 0.771698 54.8629C0.771698 51.4827 3.52192 48.7325 6.90214 48.7325C10.2824 48.7325 13.0326 51.4827 13.0326 54.8629C13.0326 55.2922 12.6841 55.6407 12.2548 55.6407C11.8255 55.6407 11.477 55.2922 11.477 54.8629C11.477 52.3413 9.42525 50.288 6.90214 50.288C4.37903 50.288 2.32725 52.3398 2.32725 54.8629C2.32725 57.386 4.37903 59.4378 6.90214 59.4378C7.33148 59.4378 7.67992 59.7862 7.67992 60.2156C7.67992 60.6449 7.33148 60.9933 6.90214 60.9933Z" fill="#002B45"/>
<path d="M63.6018 48.5318H17.1032C16.6739 48.5318 16.3254 48.1834 16.3254 47.754V38.0054C16.3254 37.576 16.6739 37.2276 17.1032 37.2276H63.6018C64.0312 37.2276 64.3796 37.576 64.3796 38.0054V47.754C64.3796 48.1849 64.0312 48.5318 63.6018 48.5318ZM17.881 46.9763H62.8241V38.7832H17.881V46.9763Z" fill="#002B45"/>
<path d="M58.5631 48.5319C58.1338 48.5319 57.7854 48.1834 57.7854 47.7541V43.047C57.7854 42.6176 58.1338 42.2692 58.5631 42.2692C58.9925 42.2692 59.3409 42.6176 59.3409 43.047V47.7541C59.3409 48.185 58.9925 48.5319 58.5631 48.5319Z" fill="#002B45"/>
<path d="M52.4921 48.5318C52.0627 48.5318 51.7143 48.1834 51.7143 47.754V45.4005C51.7143 44.9712 52.0627 44.6227 52.4921 44.6227C52.9214 44.6227 53.2699 44.9712 53.2699 45.4005V47.754C53.2699 48.1849 52.923 48.5318 52.4921 48.5318Z" fill="#002B45"/>
<path d="M46.4225 48.5319C45.9932 48.5319 45.6447 48.1834 45.6447 47.7541V43.047C45.6447 42.6176 45.9932 42.2692 46.4225 42.2692C46.8519 42.2692 47.2003 42.6176 47.2003 43.047V47.7541C47.2003 48.185 46.8519 48.5319 46.4225 48.5319Z" fill="#002B45"/>
<path d="M40.3522 48.5319C39.9229 48.5319 39.5744 48.1834 39.5744 47.7541V45.4005C39.5744 44.9712 39.9229 44.6228 40.3522 44.6228C40.7815 44.6228 41.13 44.9712 41.13 45.4005V47.7541C41.13 48.185 40.7815 48.5319 40.3522 48.5319Z" fill="#002B45"/>
<path d="M34.2809 48.5318C33.8516 48.5318 33.5031 48.1833 33.5031 47.754V43.0469C33.5031 42.6175 33.8516 42.2691 34.2809 42.2691C34.7103 42.2691 35.0587 42.6175 35.0587 43.0469V47.754C35.0587 48.1849 34.7103 48.5318 34.2809 48.5318Z" fill="#002B45"/>
<path d="M28.2114 48.5318C27.7821 48.5318 27.4336 48.1834 27.4336 47.754V45.4005C27.4336 44.9712 27.7821 44.6227 28.2114 44.6227C28.6407 44.6227 28.9892 44.9712 28.9892 45.4005V47.754C28.9892 48.1849 28.6407 48.5318 28.2114 48.5318Z" fill="#002B45"/>
<path d="M22.1393 48.5319C21.71 48.5319 21.3615 48.1834 21.3615 47.7541V43.047C21.3615 42.6177 21.71 42.2692 22.1393 42.2692C22.5687 42.2692 22.9171 42.6177 22.9171 43.047V47.7541C22.9171 48.185 22.5702 48.5319 22.1393 48.5319Z" fill="#002B45"/>
<path d="M57.368 31.4471C57.354 31.4471 57.3384 31.4471 57.3244 31.4471C56.5093 31.4363 55.7471 31.108 55.1778 30.5231C54.6427 29.9725 54.3424 29.2507 54.316 28.5071H26.3891C26.3611 29.2523 26.0624 29.9725 25.5273 30.5231C24.9596 31.108 24.1973 31.4363 23.3822 31.4471C22.5656 31.458 21.7956 31.1516 21.2107 30.5838L18.3173 27.7807C17.6407 27.2083 17.2518 26.3636 17.2502 25.4598C17.2487 24.5514 17.636 23.702 18.3142 23.1218L21.2122 20.314C22.4178 19.1411 24.3544 19.1676 25.5273 20.3747C26.0624 20.9254 26.3627 21.6471 26.3891 22.3907H54.316C54.344 21.6456 54.6427 20.9254 55.1778 20.3747C56.3522 19.1676 58.2873 19.1411 59.4944 20.3156L62.3909 23.1218C63.0333 23.6678 63.3989 24.374 63.4502 25.1643C63.5062 26.0463 63.1484 26.9734 62.4702 27.706C62.4484 27.7294 62.4267 27.7511 62.4018 27.7714L62.3893 27.7823L59.4929 30.5885C58.922 31.1407 58.1676 31.4471 57.368 31.4471ZM25.5149 26.9516H55.1918C55.4375 26.9516 55.6709 27.0683 55.8171 27.2658C55.9633 27.4634 56.0084 27.72 55.9369 27.9549C55.7782 28.4776 55.9151 29.0454 56.2947 29.4374C56.5731 29.7236 56.948 29.8854 57.3478 29.89C57.7553 29.8963 58.1255 29.7454 58.4118 29.4669L61.3284 26.6405C61.3393 26.6311 61.3502 26.6203 61.3596 26.6109C61.7313 26.1956 61.9273 25.7056 61.8993 25.2576C61.876 24.8889 61.6987 24.5638 61.372 24.2916C61.358 24.2791 61.3424 24.2667 61.33 24.2543L58.4133 21.4278C57.8207 20.8507 56.8702 20.8647 56.2947 21.4558C55.9136 21.8478 55.7767 22.4156 55.9369 22.9383C56.0084 23.1747 55.9649 23.4298 55.8171 23.6274C55.6709 23.8249 55.4391 23.9416 55.1918 23.9416H25.5149C25.2691 23.9416 25.0373 23.8249 24.8896 23.6274C24.7418 23.4298 24.6982 23.1731 24.7713 22.9383C24.93 22.4156 24.7931 21.8478 24.4136 21.4558C23.838 20.8647 22.8891 20.8507 22.2964 21.4263L19.3782 24.2527C19.3642 24.2667 19.3502 24.2791 19.3362 24.29C18.9987 24.5731 18.8058 24.9963 18.8058 25.4505C18.8073 25.9031 19.0002 26.3216 19.3347 26.5985C19.3502 26.6109 19.3658 26.6249 19.3798 26.6389L22.2949 29.4638C22.8876 30.0409 23.838 30.0269 24.4136 29.4358C24.7947 29.0438 24.9316 28.476 24.7713 27.9534C24.6998 27.7169 24.7433 27.4618 24.8896 27.2643C25.0358 27.0667 25.2676 26.9516 25.5149 26.9516Z" fill="#002B45"/>
</g>
<defs>
<clipPath id="clip0_1_276">
<rect width="70" height="60.6667" fill="white"/>
</clipPath>
</defs>
</svg>